<svg width="40" height="40" viewBox="0 0 40 40" fill="none" xmlns="http://www.w3.org/2000/svg">
<path d="M35.1844 3.75476C35.4773 3.462 35.9521 3.46191 36.245 3.75476C36.5377 4.04762 36.5377 4.52245 36.245 4.81531L26.5018 14.5585C26.209 14.8511 25.7341 14.8511 25.4413 14.5585C25.1484 14.2656 25.1485 13.7908 25.4413 13.4979L35.1844 3.75476Z" fill="#77D2F4"/>
<path d="M3.75531 3.75483C4.04821 3.46193 4.52297 3.46193 4.81586 3.75483L14.559 13.498C14.8516 13.7909 14.8518 14.2657 14.559 14.5585C14.2662 14.8513 13.7914 14.8511 13.4985 14.5585L3.75531 4.81537C3.46242 4.52248 3.46242 4.04772 3.75531 3.75483Z" fill="#77D2F4"/>
<path d="M13.4989 25.4423C13.7918 25.1495 14.2666 25.1494 14.5594 25.4423C14.8522 25.7351 14.8522 26.2099 14.5594 26.5028L4.81628 36.246C4.52342 36.5387 4.0486 36.5387 3.75574 36.246C3.46289 35.9531 3.46298 35.4783 3.75574 35.1854L13.4989 25.4423Z" fill="#77D2F4"/>
<path d="M25.4413 25.4423C25.7342 25.1494 26.209 25.1494 26.5019 25.4423L36.2451 35.1855C36.5377 35.4784 36.5379 35.9532 36.2451 36.246C35.9523 36.5388 35.4774 36.5387 35.1845 36.246L25.4413 26.5029C25.1485 26.21 25.1485 25.7352 25.4413 25.4423Z" fill="#77D2F4"/>
<path d="M37.8213 20.001C37.8212 10.1585 29.8424 2.17969 20 2.17969C10.1576 2.17975 2.17878 10.1586 2.17871 20.001C2.17871 29.8434 10.1576 37.8222 20 37.8223C29.8425 37.8223 37.8213 29.8435 37.8213 20.001ZM39.3213 20.001C39.3213 30.6719 30.6709 39.3223 20 39.3223C9.32914 39.3222 0.678711 30.6719 0.678711 20.001C0.678776 9.33016 9.32918 0.679751 20 0.679688C30.6709 0.679688 39.3212 9.33012 39.3213 20.001Z" fill="#77D2F4"/>
<path d="M27.6787 20.0029C27.6787 15.7622 24.2407 12.3243 20 12.3242C15.7592 12.3242 12.3213 15.7621 12.3213 20.0029C12.3213 24.2437 15.7593 27.6816 20 27.6816C24.2407 27.6816 27.6787 24.2436 27.6787 20.0029ZM29.1787 20.0029C29.1787 25.0721 25.0691 29.1816 20 29.1816C14.9308 29.1816 10.8213 25.0721 10.8213 20.0029C10.8213 14.9337 14.9308 10.8242 20 10.8242C25.0692 10.8243 29.1787 14.9338 29.1787 20.0029Z" fill="#77D2F4"/>
</svg>
