<svg width="40" height="40" viewBox="0 0 40 40" fill="none" xmlns="http://www.w3.org/2000/svg">
<path d="M30.4201 3.64844C31.0172 3.66484 31.6027 3.82212 32.1281 4.10645C32.6489 4.38836 33.0964 4.7881 33.4357 5.27344L38.6369 12.4736L38.6408 12.4795C39.1233 13.1614 39.364 13.9849 39.3253 14.8193C39.2864 15.6539 38.9697 16.4528 38.4259 17.0869L38.423 17.0898L22.8234 35.0615C22.4901 35.4811 22.0678 35.8218 21.5861 36.0576C21.0923 36.2994 20.5499 36.4257 20.0001 36.4258C19.4502 36.4258 18.9071 36.2995 18.4132 36.0576C17.9315 35.8217 17.5094 35.4805 17.1759 35.0605L1.57632 17.0898L1.57339 17.0869C1.02959 16.4527 0.712891 15.6549 0.673976 14.8203C0.635153 13.9857 0.876024 13.1615 1.35855 12.4795L1.36343 12.4736L6.56362 5.27344C6.90287 4.78812 7.35042 4.3884 7.87124 4.10645C8.39664 3.82211 8.98208 3.66484 9.57925 3.64844H30.4201ZM9.4855 5.15625C9.17079 5.18339 8.86475 5.27501 8.58609 5.42578C8.26772 5.59807 7.9935 5.84216 7.78726 6.13965C7.7846 6.14348 7.78217 6.14759 7.77945 6.15137L2.57925 13.3516C2.29236 13.7597 2.14888 14.2517 2.17202 14.75C2.19525 15.2493 2.3847 15.7265 2.70913 16.1064L18.3087 34.0781C18.3178 34.0885 18.3267 34.0995 18.3351 34.1104C18.5319 34.364 18.7848 34.5696 19.0734 34.7109C19.3618 34.8521 19.6791 34.9258 20.0001 34.9258C20.3213 34.9257 20.6385 34.8522 20.9269 34.7109C21.2154 34.5697 21.4674 34.3639 21.6642 34.1104L21.6906 34.0781L37.2902 16.1064C37.6147 15.7265 37.804 15.2494 37.8273 14.75C37.8504 14.2516 37.707 13.7597 37.4201 13.3516L32.2209 6.15137C32.218 6.14748 32.2148 6.14359 32.2121 6.13965C32.0059 5.84238 31.7324 5.59805 31.4142 5.42578C31.1357 5.27506 30.8293 5.18348 30.5148 5.15625L30.3791 5.14844H9.62027L9.4855 5.15625Z" fill="#77D2F4"/>
<path d="M17.8844 3.96372C18.1091 3.61618 18.5727 3.51663 18.9205 3.74106C19.2685 3.96571 19.3688 4.43017 19.1442 4.77817L12.3854 15.2459L20.693 35.3124C20.8514 35.6951 20.6694 36.1344 20.2867 36.2928C19.9041 36.4512 19.4658 36.269 19.3072 35.8866L10.8492 15.4579C10.7551 15.2304 10.7792 14.9713 10.9127 14.7645L17.8844 3.96372Z" fill="#77D2F4"/>
<path d="M21.1661 3.74017C21.5145 3.51628 21.9783 3.61737 22.2022 3.96575L29.1456 14.7656C29.2787 14.9728 29.3019 15.2326 29.2071 15.4599L20.6925 35.8876C20.5332 36.2698 20.0942 36.451 19.712 36.2919C19.3298 36.1326 19.1486 35.6937 19.3077 35.3115L27.67 15.2451L20.9405 4.7763C20.7167 4.4279 20.8177 3.9641 21.1661 3.74017Z" fill="#77D2F4"/>
<path d="M38.5142 14.4219C38.9284 14.4219 39.2642 14.7577 39.2642 15.1719C39.2642 15.5861 38.9284 15.9219 38.5142 15.9219H1.48584C1.07163 15.9219 0.73584 15.5861 0.73584 15.1719C0.73584 14.7577 1.07163 14.4219 1.48584 14.4219H38.5142Z" fill="#77D2F4"/>
</svg>
